#!OML:ASF F:\VICON\USERDATA\INSTALL\Justin_Nancy\Justin_Nancy.ASF
:FULLY-SPECIFIED
:DEGREES
48
root 1.81858 17.3204 -22.1487 0.293894 -7.03758 -5.28109
lowerback 5.3612 2.16865 4.41862
upperback 0.223995 3.23751 2.88006
thorax -2.69749 1.57164 0.25144
lowerneck -15.4339 -4.07005 -9.21784
upperneck 18.3302 -4.82428 6.88565
head 8.65943 -2.22035 3.2738
rclavicle 2.11209e-015 2.38542e-015
rhumerus -23.0186 -3.65158 -81.179
rradius 38.235
rwrist 2.55418
rhand -18.5123 10.3155
rfingers 7.12502
rthumb 7.77588 -19.5215
lclavicle 2.11209e-015 2.38542e-015
lhumerus -33.7006 21.3968 79.8036
lradius 20.9441
lwrist -15.6912
lhand -15.7596 28.8099
lfingers 7.12502
lthumb 10.4321 58.5311
rfemur 8.89001 6.39688 32.7535
rtibia 13.8638
rfoot -15.3988 -1.955
rtoes 2.88818
lfemur -31.2979 -5.67753 -11.1899
ltibia 23.4384
lfoot 0.522533 15.0164
ltoes -3.12796
49
root 1.81785 17.2944 -21.9691 0.423977 -7.36432 -5.43046
lowerback 5.22686 2.26117 4.52994
upperback 0.139954 3.36438 2.9438
thorax -2.70342 1.63279 0.250325
lowerneck -15.2052 -4.00079 -9.54662
upperneck 18.3671 -4.7283 7.15372
head 8.63698 -2.17584 3.43573
rclavicle -3.67006e-014 -7.15625e-015
rhumerus -23.1583 -3.16617 -81.1736
rradius 38.8189
rwrist 2.06479
rhand -18.3976 10.8238
rfingers 7.12502
rthumb 7.88664 -19.0091
lclavicle -3.67006e-014 -7.15625e-015
lhumerus -34.3181 22.3236 79.1021
lradius 20.7834
lwrist -16.1182
lhand -15.7814 25.8224
lfingers 7.12502
lthumb 10.411 55.5446
rfemur 9.54846 6.34221 32.8761
rtibia 13.6021
rfoot -15.4564 -1.99344
rtoes 1.60744
lfemur -31.4599 -7.0554 -10.3225
ltibia 21.8872
lfoot 0.27783 16.3585
ltoes -1.70783
50
root 1.81605 17.2676 -21.7911 0.503709 -7.79554 -5.35783
lowerback 5.19483 2.4371 4.39115
upperback 0.153808 3.5873 2.93593
thorax -2.67299 1.74623 0.305455
lowerneck -15.3273 -4.0793 -9.58879
upperneck 18.2723 -4.79811 7.0958
head 8.6334 -2.21455 3.41143
rclavicle -1.2921e-014 -1.07344e-014
rhumerus -23.0602 -3.07179 -81.0792
rradius 39.2211
rwrist 1.98853
rhand -18.1297 11.3422
rfingers 7.12502
rthumb 8.14514 -18.4808
lclavicle -1.2921e-014 -1.07344e-014
lhumerus -34.3466 23.9359 78.3244
lradius 19.6175
lwrist -16.1108
lhand -17.0184 23.3307
lfingers 7.12502
lthumb 9.21756 53.1092
rfemur 10.1403 6.3629 32.7629
rtibia 13.5358
rfoot -15.5139 -2.04286
rtoes -0.870217
lfemur -31.5493 -9.00956 -9.42285
ltibia 20.6549
lfoot -1.45154 18.0769
ltoes 1.71454
51
root 1.81594 17.2429 -21.6179 0.62631 -8.01121 -5.21741
lowerback 5.13434 2.53897 4.32101
upperback 0.220979 3.70788 2.81549
thorax -2.56283 1.80906 0.217047
lowerneck -15.8137 -4.14458 -9.64321
upperneck 18.3514 -4.85942 7.2217
head 8.75863 -2.22506 3.45262
rclavicle 5.46658e-015 -3.97569e-015
rhumerus -22.6069 -3.15548 -81.1486
rradius 39.4817
rwrist 1.81412
rhand -17.8395 11.5658
rfingers 7.12502
rthumb 8.42524 -18.2461
lclavicle 5.46658e-015 -3.97569e-015
lhumerus -34.3889 24.5087 77.9311
lradius 19.3166
lwrist -16.2964
lhand -16.9328 23.1764
lfingers 7.12502
lthumb 9.30014 52.9512
rfemur 10.5745 6.45264 32.603
rtibia 13.8029
rfoot -15.894 -2.19486
rtoes -0.923151
lfemur -31.5162 -9.5222 -9.25584
ltibia 19.6241
lfoot -3.77776 17.6725
ltoes 2.92774
52
root 1.82097 17.2202 -21.444 0.857842 -7.95355 -5.20226
lowerback 4.93575 2.53454 4.44582
upperback 0.176827 3.69552 2.72045
thorax -2.48327 1.80201 0.0599428
lowerneck -16.0607 -4.12261 -9.72823
upperneck 18.5711 -4.82437 7.35968
head 8.8807 -2.19656 3.52013
rclavicle -3.77194e-014 -2.94201e-014
rhumerus -22.3228 -2.93668 -81.2896
rradius 39.7289
rwrist 1.47988
rhand -17.8045 11.7321
rfingers 7.12502
rthumb 8.45896 -18.0785
lclavicle -3.77194e-014 -2.94201e-014
lhumerus -34.6645 24.2974 77.8962
lradius 19.5392
lwrist -15.75
lhand -17.0562 23.7325
lfingers 7.12502
lthumb 9.18114 53.5127
rfemur 10.7857 6.28788 32.5275
rtibia 14.2393
rfoot -16.2758 -2.25869
rtoes -0.0296802
lfemur -31.5222 -10.2893 -8.99975
ltibia 18.7895
lfoot -6.38188 17.3832
ltoes -1.45801
53
root 1.82787 17.2003 -21.2668 0.962942 -7.94441 -5.29271
lowerback 4.89243 2.57872 4.64182
upperback 0.122013 3.76376 2.6746
thorax -2.49808 1.83244 -0.0991159
lowerneck -16.1544 -4.19406 -9.76205
upperneck 18.85 -4.93031 7.406
head 9.00548 -2.24328 3.53105
rclavicle -4.77829e-014 -2.18663e-014
rhumerus -22.2424 -3.02938 -81.3247
rradius 39.9885
rwrist 1.54288
rhand -17.8421 12.0523
rfingers 7.12502
rthumb 8.42275 -17.7597
lclavicle -4.77829e-014 -2.18663e-014
lhumerus -34.759 24.9713 77.3759
lradius 18.9952
lwrist -16.3863
lhand -16.6976 24.7892
lfingers 7.12502
lthumb 9.52711 54.5538
rfemur 11.2187 6.16459 32.5398
rtibia 14.5402
rfoot -16.4601 -2.10148
rtoes 0.653781
lfemur -31.2554 -9.13326 -9.494
ltibia 18.3455
lfoot -8.00296 15.4406
ltoes -8.05532
54
root 1.82693 17.1798 -21.0946 1.00195 -7.87589 -5.4412
lowerback 5.01578 2.61105 4.75497
upperback -0.00667083 3.82907 2.69059
thorax -2.69208 1.85817 -0.159442
lowerneck -15.8706 -4.33264 -9.75348
upperneck 18.9459 -5.13496 7.30223
head 9.00346 -2.35559 3.47006
rclavicle -4.28381e-014 -2.90226e-014
rhumerus -22.2856 -3.17868 -81.2922
rradius 40.1894
rwrist 1.61068
rhand -17.67 12.1934
rfingers 7.12502
rthumb 8.58877 -17.6119
lclavicle -4.28381e-014 -2.90226e-014
lhumerus -35.1758 26.287 76.3345
lradius 18.2077
lwrist -18.0263
lhand -15.9788 24.1659
lfingers 7.12502
lthumb 10.2206 53.8976
rfemur 11.782 6.27998 32.7087
rtibia 14.6486
rfoot -16.3907 -1.99889
rtoes 1.38685
lfemur -31.1342 -7.0637 -10.3408
ltibia 18.4115
lfoot -7.99804 12.6114
ltoes -12.3126
55
root 1.82279 17.1629 -20.9224 0.975137 -7.66563 -5.50472
lowerback 5.18591 2.49046 4.70651
upperback -0.171383 3.68914 2.77227
thorax -2.97166 1.78233 -0.0524446
lowerneck -15.4095 -4.26685 -9.75918
upperneck 18.7895 -5.03512 7.1036
head 8.85158 -2.33839 3.41755
rclavicle 6.72141e-015 4.37326e-015
rhumerus -22.3987 -2.95875 -81.2923
rradius 40.3236
rwrist 1.5821
rhand -17.4647 12.3899
rfingers 7.12502
rthumb 8.78694 -17.4072
lclavicle 6.72141e-015 4.37326e-015
lhumerus -35.8592 27.2722 75.5174
lradius 17.6872
lwrist -18.8041
lhand -15.8878 23.4391
lfingers 7.12502
lthumb 10.3084 53.1665
rfemur 12.299 6.24665 32.8303
rtibia 14.8004
rfoot -16.2118 -2.24018
rtoes -0.384342
lfemur -31.0985 -5.06752 -11.343
ltibia 18.7759
lfoot -6.47488 9.63488
ltoes -11.9579
56
root 1.82157 17.1501 -20.7404 0.818801 -7.60288 -5.47888
lowerback 5.32537 2.44217 4.62081
upperback -0.22787 3.63388 2.81472
thorax -3.11844 1.75301 0.0342603
lowerneck -15.1776 -4.12218 -9.78974
upperneck 18.6435 -4.83118 7.0542
head 8.7401 -2.25363 3.4323
rclavicle -1.98412e-014 -2.70347e-014
rhumerus -22.4913 -2.71956 -81.2848
rradius 40.5003
rwrist 1.4526
rhand -17.583 12.3233
rfingers 7.12502
rthumb 8.67279 -17.4786
lclavicle -1.98412e-014 -2.70347e-014
lhumerus -36.4042 28.0159 74.8372
lradius 17.1918
lwrist -19.3687
lhand -16.0067 23.4214
lfingers 7.12502
lthumb 10.1937 53.1544
rfemur 12.9443 6.17488 32.8239
rtibia 15.1007
rfoot -16.0407 -2.47567
rtoes -3.1488
lfemur -30.9129 -3.78152 -12.1309
ltibia 19.3911
lfoot -4.43875 7.62087
ltoes -8.0304
57
root 1.82036 17.1377 -20.5528 0.571156 -7.71777 -5.15601
lowerback 5.3888 2.52938 4.269
upperback -0.104966 3.72324 2.72466
thorax -3.03965 1.80527 0.129762
lowerneck -15.2198 -4.13265 -9.71156
upperneck 18.501 -4.83328 6.95972
head 8.69516 -2.25688 3.38413
rclavicle -5.36843e-014 -2.38542e-014
rhumerus -22.2657 -2.92489 -81.2692
rradius 40.5128
rwrist 1.63102
rhand -17.7302 12.3696
rfingers 7.12502
rthumb 8.53073 -17.4381
lclavicle -5.36843e-014 -2.38542e-014
lhumerus -36.6072 28.7998 74.286
lradius 16.8662
lwrist -20.396
lhand -15.8465 23.8371
lfingers 7.12502
lthumb 10.3482 53.5625
rfemur 13.5929 6.25556 32.4612
rtibia 15.6415
rfoot -15.9192 -2.309
rtoes -3.00749
lfemur -30.61 -3.21413 -12.9262
ltibia 20.1638
lfoot -2.81497 6.96222
ltoes -4.46072
58
root 1.81565 17.1181 -20.3668 0.292952 -7.827 -5.00526
lowerback 5.57161 2.6111 4.01991
upperback -0.00758738 3.82295 2.71859
thorax -3.05432 1.85925 0.247323
lowerneck -15.2828 -4.1812 -9.96099
upperneck 18.5005 -4.87441 7.15046
head 8.72189 -2.27321 3.48558
rclavicle -5.84924e-014 -7.15625e-015
rhumerus -22.209 -3.06586 -81.1921
rradius 40.5635
rwrist 1.69405
rhand -17.6032 12.5506
rfingers 7.12502
rthumb 8.65323 -17.2521
lclavicle -5.84924e-014 -7.15625e-015
lhumerus -36.9452 29.9802 73.3875
lradius 16.1492
lwrist -21.7216
lhand -15.9605 23.0363
lfingers 7.12502
lthumb 10.2383 52.7672
rfemur 14.1123 6.37633 32.3308
rtibia 16.4706
rfoot -15.7364 -2.15504
rtoes -2.87488
lfemur -30.1865 -2.65556 -13.5287
ltibia 20.9199
lfoot -1.78679 6.46814
ltoes -3.1748
59
root 1.81453 17.1029 -20.1661 -0.0363654 -8.11387 -4.73981
lowerback 5.59191 2.72129 3.78644
upperback 0.177701 3.94343 2.60263
thorax -2.8783 1.9263 0.252478
lowerneck -15.6065 -4.24409 -9.97717
upperneck 18.6198 -4.9443 7.21098
head 8.82995 -2.29531 3.49867
rclavicle -4.87768e-014 -3.02153e-014
rhumerus -22.2156 -3.23324 -81.2655
rradius 40.6862
rwrist 1.7513
rhand -17.6043 12.8585
rfingers 7.12502
rthumb 8.65219 -16.9442
lclavicle -4.87768e-014 -3.02153e-014
lhumerus -37.282 31.4908 72.2087
lradius 15.5197
lwrist -23.5875
lhand -15.3916 23.2335
lfingers 7.12502
lthumb 10.787 52.9366
rfemur 14.5612 6.3858 31.9692
rtibia 17.595
rfoot -15.6516 -1.85213
rtoes -5.48806
lfemur -29.4147 -2.21522 -14.2012
ltibia 21.4669
lfoot -1.48463 5.94915
ltoes -4.6229
60
root 1.82242 17.0987 -19.9517 -0.265964 -8.63598 -4.38117
lowerback 5.40233 2.95383 3.7036
upperback 0.324628 4.2219 2.31664
thorax -2.59831 2.07023 -0.000149729
lowerneck -15.8088 -4.37263 -9.77323
upperneck 18.6935 -5.16277 7.23034
head 8.90725 -2.37757 3.44181
rclavicle 3.4837e-014 3.1408e-014
rhumerus -22.2794 -3.75782 -81.4301
rradius 40.7407
rwrist 1.91112
rhand -17.5966 13.2602
rfingers 7.12502
rthumb 8.65968 -16.5422
lclavicle 3.4837e-014 3.1408e-014
lhumerus -37.3463 31.6761 71.6994
lradius 15.3095
lwrist -24.1369
lhand -14.873 24.4245
lfingers 7.12502
lthumb 11.2872 54.1008
rfemur 14.9772 6.40342 31.3554
rtibia 18.6702
rfoot -15.4124 -1.27877
rtoes -7.44338
lfemur -28.6656 -1.87911 -14.8821
ltibia 22.0051
lfoot -1.54148 5.45106
ltoes -6.07461
61
root 1.83336 17.1107 -19.7357 -0.364283 -9.00455 -3.86608
lowerback 5.13989 3.14235 3.37201
upperback 0.355681 4.43219 2.07933
thorax -2.42003 2.18111 -0.0576302
lowerneck -15.9734 -4.42665 -9.81887
upperneck 18.9181 -5.24913 7.35334
head 9.02702 -2.40625 3.48204
rclavicle -3.61167e-014 -1.78906e-014
rhumerus -22.3412 -4.32404 -81.4554
rradius 40.6133
rwrist 2.26005
rhand -17.5497 13.264
rfingers 7.12502
rthumb 8.70494 -16.5365
lclavicle -3.61167e-014 -1.78906e-014
lhumerus -37.5435 31.8968 71.2794
lradius 15.0714
lwrist -24.4792
lhand -14.9466 25.961
lfingers 7.12502
lthumb 11.2162 55.6411
rfemur 15.1645 6.25524 30.4772
rtibia 19.7255
rfoot -14.964 -0.464769
rtoes -8.33537
lfemur -28.2079 -1.65356 -15.6917
ltibia 22.5345
lfoot -0.844216 4.88193
ltoes -5.90351
62
root 1.84855 17.132 -19.517 -0.331857 -9.06572 -3.62393
lowerback 4.85183 3.16214 3.30241
upperback 0.207288 4.44437 1.99585
thorax -2.41017 2.18696 -0.0929512
lowerneck -15.7297 -4.33637 -9.96148
upperneck 19.0524 -5.12131 7.36864
head 9.0209 -2.361 3.53248
rclavicle 3.78188e-014 2.8625e-014
rhumerus -22.7748 -4.46281 -81.3863
rradius 40.5567
rwrist 2.53542
rhand -17.5932 13.1434
rfingers 7.12502
rthumb 8.66296 -16.6588
lclavicle 3.78188e-014 2.8625e-014
lhumerus -37.9619 32.0544 70.9005
lradius 14.8675
lwrist -24.72
lhand -14.6938 26.6827
lfingers 7.12502
lthumb 11.4601 56.3495
rfemur 15.1146 5.90126 29.9009
rtibia 20.8386
rfoot -14.2617 0.25253
rtoes -9.65651
lfemur -28.0817 -1.95983 -16.068
ltibia 23.089
lfoot 1.24543 4.73077
ltoes -3.38788
